<svg width="412" height="455" viewBox="0 0 412 455" fill="none" xmlns="http://www.w3.org/2000/svg">
<path d="M1.38311 448.402C0.3324 448.062 -0.243182 446.934 0.0975145 445.883L5.64949 428.761C5.99019 427.71 7.11815 427.134 8.16886 427.475C9.21958 427.816 9.79516 428.944 9.45446 429.995L4.51937 445.214L19.7393 450.149C20.79 450.49 21.3656 451.618 21.0249 452.669C20.6842 453.72 19.5562 454.295 18.5055 453.954L1.38311 448.402ZM1.09094 444.719C87.1931 400.782 133.265 352.771 154 306.293C174.719 259.853 170.273 214.652 154.742 176.017C139.196 137.343 112.563 105.324 89.1021 85.4647C77.3575 75.5228 66.5188 68.7227 58.3672 65.6256C54.2633 64.0663 51.055 63.5295 48.8328 63.8207C47.7509 63.9625 46.9788 64.2903 46.4344 64.7187C45.9038 65.1362 45.4785 65.7352 45.215 66.6233L41.3802 65.4854C41.8542 63.8884 42.7142 62.5562 43.9608 61.5753C45.1934 60.6053 46.6903 60.0673 48.3131 59.8546C51.5003 59.4369 55.4445 60.2362 59.7879 61.8863C68.5307 65.2081 79.7654 72.3203 91.6865 82.4116C115.557 102.618 142.625 135.149 158.453 174.525C174.298 213.941 178.903 260.292 157.653 307.922C136.421 355.514 89.5059 404.092 2.90906 448.281L1.09094 444.719ZM45.215 66.6233C44.5894 68.7315 44.7046 70.4659 45.3026 71.9276C45.9109 73.4143 47.094 74.8001 48.9039 76.0471C52.5743 78.5758 58.4645 80.2836 65.6886 81.0334C80.0837 82.5274 98.7245 80.1173 112.547 74.2989C119.465 71.3865 124.973 67.7048 128.199 63.4268C131.344 59.2562 132.375 54.4695 130.324 48.8947C128.218 43.1685 122.791 36.438 112.52 28.8171C102.281 21.2198 87.4054 12.8671 66.7002 3.83312L68.2998 0.166893C89.1603 9.2686 104.334 17.7619 114.904 25.6048C125.441 33.4241 131.582 40.7279 134.078 47.5137C136.63 54.4511 135.299 60.6543 131.393 65.8351C127.567 70.9085 121.334 74.9398 114.099 77.9855C99.6125 84.0834 80.2909 86.5704 65.2757 85.012C57.7946 84.2355 51.1177 82.4297 46.6346 79.341C44.3678 77.7794 42.5776 75.8306 41.6005 73.4422C40.6131 71.0289 40.5309 68.3478 41.3802 65.4854L45.215 66.6233Z" fill="white"/>
<path d="M228.963 202.04C228.803 194.2 216.083 197.04 216.083 191.84C216.083 190.08 217.683 188.8 220.363 188.8C223.283 188.8 224.963 190.4 225.123 192.6H228.763C228.523 188.32 225.323 185.72 220.483 185.72C215.603 185.72 212.443 188.48 212.443 191.84C212.443 200 225.403 197.16 225.403 202.04C225.403 203.84 223.803 205.28 220.923 205.28C217.843 205.28 215.963 203.68 215.763 201.56H212.003C212.243 205.56 215.843 208.36 220.963 208.36C225.803 208.36 228.963 205.64 228.963 202.04ZM253.941 186.08H250.301V198.12C250.301 202.84 247.781 205.16 244.021 205.16C240.341 205.16 237.901 202.88 237.901 198.44V186.08H234.301V198.92C234.301 205.2 238.261 208.32 243.301 208.32C246.221 208.32 248.901 207.04 250.301 204.76V208H253.941V186.08ZM264.127 190.12V186.08H260.487V218.4H264.127V203.96C265.487 206.2 268.327 208.36 272.327 208.36C278.207 208.36 282.727 203.76 282.727 196.96C282.727 190.12 278.207 185.72 272.327 185.72C268.327 185.72 265.447 187.8 264.127 190.12ZM279.007 196.96C279.007 202.12 275.607 205.16 271.567 205.16C267.607 205.16 264.127 202.16 264.127 197C264.127 191.92 267.607 188.88 271.567 188.88C275.607 188.88 279.007 191.8 279.007 196.96ZM297.238 188.8C300.998 188.8 304.198 191.16 304.158 195.44H290.318C290.718 191.16 293.678 188.8 297.238 188.8ZM307.478 201.24H303.558C302.758 203.6 300.678 205.28 297.398 205.28C293.678 205.28 290.558 202.84 290.278 198.4H307.798C307.878 197.64 307.918 197 307.918 196.2C307.918 190.2 303.758 185.72 297.398 185.72C290.998 185.72 286.558 190.08 286.558 197C286.558 203.96 291.158 208.36 297.398 208.36C302.838 208.36 306.358 205.24 307.478 201.24ZM316.763 196.08C316.763 191 319.403 189.44 322.883 189.44H323.843V185.68C320.363 185.68 318.003 187.2 316.763 189.64V186.08H313.123V208H316.763V196.08ZM327.085 197C327.085 203.96 331.525 208.36 337.765 208.36C343.205 208.36 346.765 205.32 347.885 200.96H343.965C343.165 203.72 341.005 205.28 337.765 205.28C333.765 205.28 330.805 202.44 330.805 197C330.805 191.64 333.765 188.8 337.765 188.8C341.005 188.8 343.205 190.48 343.965 193.12H347.885C346.765 188.52 343.205 185.72 337.765 185.72C331.525 185.72 327.085 190.12 327.085 197ZM373.942 197C373.942 190.08 369.102 185.72 362.862 185.72C356.662 185.72 351.782 190.08 351.782 197C351.782 203.96 356.502 208.36 362.702 208.36C368.942 208.36 373.942 203.96 373.942 197ZM355.502 197C355.502 191.48 358.982 188.88 362.822 188.88C366.582 188.88 370.222 191.48 370.222 197C370.222 202.56 366.502 205.16 362.702 205.16C358.902 205.16 355.502 202.56 355.502 197ZM399.928 197C399.928 190.08 395.088 185.72 388.848 185.72C382.648 185.72 377.768 190.08 377.768 197C377.768 203.96 382.488 208.36 388.688 208.36C394.928 208.36 399.928 203.96 399.928 197ZM381.488 197C381.488 191.48 384.968 188.88 388.808 188.88C392.568 188.88 396.208 191.48 396.208 197C396.208 202.56 392.488 205.16 388.688 205.16C384.888 205.16 381.488 202.56 381.488 197ZM405.114 208H408.754V178.4H405.114V208ZM285.349 262.04C285.189 254.2 272.469 257.04 272.469 251.84C272.469 250.08 274.069 248.8 276.749 248.8C279.669 248.8 281.349 250.4 281.509 252.6H285.149C284.909 248.32 281.709 245.72 276.869 245.72C271.989 245.72 268.829 248.48 268.829 251.84C268.829 260 281.789 257.16 281.789 262.04C281.789 263.84 280.189 265.28 277.309 265.28C274.229 265.28 272.349 263.68 272.149 261.56H268.389C268.629 265.56 272.229 268.36 277.349 268.36C282.189 268.36 285.349 265.64 285.349 262.04ZM291.687 262C291.687 266.4 293.887 268 297.767 268H301.047V264.92H298.367C296.127 264.92 295.327 264.16 295.327 262V249.08H301.047V246.08H295.327V240.56H291.687V246.08H288.847V249.08H291.687V262ZM325.297 246.08H321.657V258.12C321.657 262.84 319.137 265.16 315.377 265.16C311.697 265.16 309.257 262.88 309.257 258.44V246.08H305.657V258.92C305.657 265.2 309.617 268.32 314.657 268.32C317.577 268.32 320.257 267.04 321.657 264.76V268H325.297V246.08ZM332.523 268H336.163V249.08H340.763V246.08H336.163V244.52C336.163 241.68 337.243 240.48 340.523 240.48V237.44C334.923 237.44 332.523 239.64 332.523 244.52V246.08H329.683V249.08H332.523V268ZM346.087 268H349.727V249.08H354.327V246.08H349.727V244.52C349.727 241.68 350.807 240.48 354.087 240.48V237.44C348.487 237.44 346.087 239.64 346.087 244.52V246.08H343.247V249.08H346.087V268Z" fill="white"/>
</svg>
