<svg width="280" height="92" viewBox="0 0 280 92" fill="none" xmlns="http://www.w3.org/2000/svg">
<g filter="url(#filter0_d_35_204)">
<rect x="6" y="4" width="268.214" height="79.3869" rx="27.2184" fill="#007BFF"/>
<g clip-path="url(#clip0_35_204)">
<path d="M70.8924 30.2115C68.1451 28.9725 65.2002 28.0567 62.1207 27.5359C62.0932 27.5307 62.0648 27.5341 62.0394 27.5456C62.014 27.5572 61.9928 27.5764 61.9788 27.6006C61.6017 28.2632 61.1815 29.1269 60.887 29.8092C57.6209 29.3212 54.3004 29.3212 51.0343 29.8092C50.7063 29.053 50.3364 28.3157 49.9264 27.6006C49.9125 27.5761 49.8914 27.5565 49.8661 27.5443C49.8407 27.5321 49.8123 27.5279 49.7845 27.5323C46.7068 28.0531 43.7619 28.9689 41.0127 30.2097C40.9891 30.2196 40.969 30.2365 40.9553 30.2582C35.3672 38.4733 33.8355 46.4855 34.5879 54.3972C34.59 54.4165 34.596 54.4353 34.6056 54.4523C34.6151 54.4692 34.628 54.4841 34.6435 54.4959C37.9052 56.8705 41.5431 58.6795 45.4049 59.847C45.4318 59.8553 45.4606 59.8552 45.4875 59.8469C45.5144 59.8386 45.5382 59.8223 45.5557 59.8003C46.3853 58.687 47.1251 57.5108 47.7572 56.2754C47.7949 56.2036 47.759 56.1174 47.6836 56.0887C46.5236 55.6518 45.3997 55.1247 44.3221 54.5121C44.3028 54.501 44.2864 54.4853 44.2746 54.4664C44.2628 54.4475 44.2559 54.426 44.2545 54.4037C44.2531 54.3815 44.2572 54.3592 44.2665 54.3389C44.2758 54.3187 44.29 54.301 44.3078 54.2876C44.534 54.1206 44.7603 53.9464 44.9757 53.7723C44.9951 53.7566 45.0185 53.7466 45.0432 53.7435C45.068 53.7403 45.0931 53.744 45.1158 53.7543C52.1673 56.9218 59.8043 56.9218 66.7732 53.7543C66.796 53.7434 66.8214 53.7392 66.8465 53.742C66.8715 53.7449 66.8953 53.7547 66.9151 53.7705C67.1305 53.9464 67.355 54.1206 67.583 54.2876C67.601 54.3008 67.6154 54.3182 67.625 54.3383C67.6346 54.3583 67.6391 54.3805 67.638 54.4027C67.6369 54.425 67.6304 54.4466 67.6189 54.4657C67.6074 54.4848 67.5914 54.5007 67.5723 54.5121C66.4985 55.1298 65.3816 55.6523 64.209 56.0869C64.191 56.0934 64.1746 56.1037 64.1609 56.1171C64.1472 56.1305 64.1365 56.1466 64.1295 56.1645C64.1225 56.1823 64.1195 56.2014 64.1205 56.2206C64.1215 56.2397 64.1266 56.2584 64.1354 56.2754C64.7818 57.509 65.5216 58.6834 66.3351 59.7985C66.352 59.8214 66.3755 59.8385 66.4025 59.8475C66.4295 59.8565 66.4586 59.8569 66.4859 59.8488C70.3544 58.6845 73.9982 56.8748 77.2634 54.4959C77.2794 54.4848 77.2927 54.4704 77.3026 54.4536C77.3125 54.4369 77.3188 54.4183 77.3209 54.3989C78.2187 45.2519 75.8161 37.3043 70.9481 30.2617C70.9362 30.2389 70.9164 30.221 70.8924 30.2115ZM48.8113 49.5794C46.6888 49.5794 44.938 47.6599 44.938 45.3057C44.938 42.9498 46.6547 41.0321 48.8113 41.0321C50.984 41.0321 52.7186 42.966 52.6845 45.3057C52.6845 47.6616 50.9678 49.5794 48.8113 49.5794ZM63.1316 49.5794C61.0074 49.5794 59.2584 47.6599 59.2584 45.3057C59.2584 42.9498 60.9732 41.0321 63.1316 41.0321C65.3044 41.0321 67.039 42.966 67.0048 45.3057C67.0048 47.6616 65.3062 49.5794 63.1316 49.5794Z" fill="white"/>
</g>
<path d="M96.1675 36.4933C97.7036 36.4933 98.7533 35.4436 98.7533 34.1379C98.7533 32.8066 97.7036 31.7569 96.1675 31.7569C94.6057 31.7569 93.556 32.8066 93.556 34.1379C93.556 35.4436 94.6057 36.4933 96.1675 36.4933ZM93.9913 37.9783V54.1589C93.9913 55.0038 93.6328 55.3622 92.6599 55.3622H91.6103V59.0745H93.3256C96.2955 59.0745 98.3693 57.82 98.3693 54.1077V37.9783H93.9913ZM115.679 45.1213C115.679 40.5897 112.453 37.7735 108.254 37.7735C104.081 37.7735 100.829 40.5897 100.829 45.1213C100.829 49.6529 104.004 52.4692 108.203 52.4692C112.402 52.4692 115.679 49.6529 115.679 45.1213ZM105.284 45.1213C105.284 42.6891 106.667 41.5626 108.254 41.5626C109.79 41.5626 111.224 42.6891 111.224 45.1213C111.224 47.5279 109.765 48.68 108.203 48.68C106.615 48.68 105.284 47.5279 105.284 45.1213ZM118.184 52.2643H122.562V37.9783H118.184V52.2643ZM120.386 36.4933C121.922 36.4933 122.972 35.4436 122.972 34.1379C122.972 32.8066 121.922 31.7569 120.386 31.7569C118.824 31.7569 117.774 32.8066 117.774 34.1379C117.774 35.4436 118.824 36.4933 120.386 36.4933ZM135.775 52.2643H140.127V43.918C140.127 40.0777 137.925 37.8247 134.622 37.8247C132.702 37.8247 131.166 38.6695 130.296 39.8728V37.9783H125.918V52.2643H130.296V44.5069C130.296 42.5611 131.371 41.4858 133.035 41.4858C134.699 41.4858 135.775 42.5611 135.775 44.5069V52.2643ZM148.09 45.0957C148.09 49.6017 150.881 52.4692 154.388 52.4692C156.487 52.4692 157.998 51.5219 158.792 50.2162V52.2643H163.17V33.3187H158.792V39.9496C157.921 38.6439 156.283 37.7735 154.388 37.7735C150.881 37.7735 148.09 40.5897 148.09 45.0957ZM158.792 45.1213C158.792 47.3999 157.332 48.6544 155.668 48.6544C154.03 48.6544 152.545 47.3743 152.545 45.0957C152.545 42.8171 154.03 41.5882 155.668 41.5882C157.332 41.5882 158.792 42.8427 158.792 45.1213ZM166.52 52.2643H170.898V37.9783H166.52V52.2643ZM168.722 36.4933C170.258 36.4933 171.307 35.4436 171.307 34.1379C171.307 32.8066 170.258 31.7569 168.722 31.7569C167.16 31.7569 166.11 32.8066 166.11 34.1379C166.11 35.4436 167.16 36.4933 168.722 36.4933ZM185.851 48.1168C185.774 42.7915 178.043 44.4044 178.043 42.1258C178.043 41.4346 178.606 41.0249 179.63 41.0249C180.859 41.0249 181.601 41.665 181.729 42.6379H185.774C185.493 39.8216 183.445 37.7735 179.758 37.7735C176.02 37.7735 173.946 39.7704 173.946 42.2026C173.946 47.4511 181.729 45.787 181.729 48.0912C181.729 48.7312 181.14 49.2433 180.014 49.2433C178.811 49.2433 177.915 48.5776 177.812 47.5791H173.485C173.69 50.3442 176.25 52.4692 180.065 52.4692C183.649 52.4692 185.851 50.6002 185.851 48.1168ZM187.842 45.1213C187.842 49.6529 190.812 52.4692 195.011 52.4692C198.595 52.4692 201.13 50.3954 201.872 47.0927H197.212C196.828 48.1424 196.137 48.7312 194.934 48.7312C193.372 48.7312 192.297 47.5023 192.297 45.1213C192.297 42.7403 193.372 41.5114 194.934 41.5114C196.137 41.5114 196.854 42.1514 197.212 43.1499H201.872C201.13 39.7448 198.595 37.7735 195.011 37.7735C190.812 37.7735 187.842 40.6153 187.842 45.1213ZM218.376 45.1213C218.376 40.5897 215.15 37.7735 210.951 37.7735C206.778 37.7735 203.526 40.5897 203.526 45.1213C203.526 49.6529 206.701 52.4692 210.9 52.4692C215.099 52.4692 218.376 49.6529 218.376 45.1213ZM207.981 45.1213C207.981 42.6891 209.364 41.5626 210.951 41.5626C212.487 41.5626 213.921 42.6891 213.921 45.1213C213.921 47.5279 212.461 48.68 210.9 48.68C209.312 48.68 207.981 47.5279 207.981 45.1213ZM225.259 45.6334C225.259 43.1755 226.462 42.4587 228.536 42.4587H229.739V37.8247C227.819 37.8247 226.258 38.8488 225.259 40.3593V37.9783H220.881V52.2643H225.259V45.6334ZM231.144 45.0957C231.144 49.6017 233.935 52.4692 237.443 52.4692C239.542 52.4692 241.053 51.5219 241.846 50.2162V52.2643H246.224V33.3187H241.846V39.9496C240.976 38.6439 239.337 37.7735 237.443 37.7735C233.935 37.7735 231.144 40.5897 231.144 45.0957ZM241.846 45.1213C241.846 47.3999 240.387 48.6544 238.723 48.6544C237.084 48.6544 235.599 47.3743 235.599 45.0957C235.599 42.8171 237.084 41.5882 238.723 41.5882C240.387 41.5882 241.846 42.8427 241.846 45.1213Z" fill="white"/>
<rect x="6" y="4" width="268.214" height="79.3869" rx="27.2184" stroke="#007BFF"/>
</g>
<defs>
<filter id="filter0_d_35_204" x="0.329507" y="0.597704" width="279.555" height="90.7279" filterUnits="userSpaceOnUse" color-interpolation-filters="sRGB">
<feFlood flood-opacity="0" result="BackgroundImageFix"/>
<feColorMatrix in="SourceAlpha" type="matrix" values="0 0 0 0 0 0 0 0 0 0 0 0 0 0 0 0 0 0 127 0" result="hardAlpha"/>
<feOffset dy="2.2682"/>
<feGaussianBlur stdDeviation="2.83525"/>
<feComposite in2="hardAlpha" operator="out"/>
<feColorMatrix type="matrix" values="0 0 0 0 0 0 0 0 0 0 0 0 0 0 0 0 0 0 0.1 0"/>
<feBlend mode="normal" in2="BackgroundImageFix" result="effect1_dropShadow_35_204"/>
<feBlend mode="normal" in="SourceGraphic" in2="effect1_dropShadow_35_204" result="shape"/>
</filter>
<clipPath id="clip0_35_204">
<rect width="43.0957" height="43.0957" fill="white" transform="translate(34.4092 22.1456)"/>
</clipPath>
</defs>
</svg>
