<svg width="138" height="44" viewBox="0 0 138 44" fill="none" xmlns="http://www.w3.org/2000/svg">
<rect width="137.077" height="44" rx="22" fill="#007BFF"/>
<path d="M55.8555 16.6336V28.2563H52.777V16.6336H55.8555ZM60.6085 28.3663C59.7289 28.3663 58.9384 28.1831 58.2368 27.8166C57.5457 27.4501 57.0013 26.9265 56.6034 26.2459C56.2055 25.5653 56.0065 24.7643 56.0065 23.8429C56.0065 22.9319 56.2055 22.1361 56.6034 21.4555C57.0117 20.7749 57.5615 20.2513 58.2525 19.8848C58.9541 19.5184 59.7446 19.3351 60.6242 19.3351C61.5038 19.3351 62.2891 19.5184 62.9802 19.8848C63.6817 20.2513 64.2314 20.7749 64.6293 21.4555C65.0377 22.1361 65.2419 22.9319 65.2419 23.8429C65.2419 24.7538 65.0377 25.5548 64.6293 26.2459C64.2314 26.9265 63.6817 27.4501 62.9802 27.8166C62.2786 28.1831 61.488 28.3663 60.6085 28.3663ZM60.6085 25.6962C61.0378 25.6962 61.3938 25.5391 61.6765 25.225C61.9697 24.9004 62.1163 24.4397 62.1163 23.8429C62.1163 23.246 61.9697 22.7905 61.6765 22.4764C61.3938 22.1623 61.043 22.0052 60.6242 22.0052C60.2054 22.0052 59.8546 22.1623 59.5719 22.4764C59.2892 22.7905 59.1478 23.246 59.1478 23.8429C59.1478 24.4502 59.2839 24.9109 59.5562 25.225C59.8284 25.5391 60.1792 25.6962 60.6085 25.6962ZM68.6461 19.3351C69.243 19.3351 69.7613 19.4555 70.201 19.6964C70.6513 19.9372 70.9968 20.2618 71.2377 20.6702V19.4451H74.3161V28.1621C74.3161 28.9893 74.1591 29.7327 73.8449 30.3924C73.5308 31.0626 73.0387 31.5966 72.3685 31.9945C71.7089 32.3924 70.8712 32.5913 69.8555 32.5913C68.4943 32.5913 67.4053 32.2719 66.5886 31.6332C65.7718 30.9945 65.3059 30.1254 65.1907 29.026H68.222C68.2849 29.3087 68.4419 29.5286 68.6932 29.6856C68.9445 29.8427 69.2691 29.9212 69.667 29.9212C70.7141 29.9212 71.2377 29.3349 71.2377 28.1621V27.0312C70.9968 27.4396 70.6513 27.7642 70.201 28.005C69.7613 28.2459 69.243 28.3663 68.6461 28.3663C67.9446 28.3663 67.3058 28.1831 66.7299 27.8166C66.1645 27.4501 65.7143 26.9265 65.3792 26.2459C65.0546 25.5548 64.8923 24.7538 64.8923 23.8429C64.8923 22.9319 65.0546 22.1361 65.3792 21.4555C65.7143 20.7749 66.1645 20.2513 66.7299 19.8848C67.3058 19.5184 67.9446 19.3351 68.6461 19.3351ZM71.2377 23.8429C71.2377 23.2774 71.0806 22.8324 70.7665 22.5078C70.4628 22.1832 70.0859 22.0209 69.6356 22.0209C69.1749 22.0209 68.7927 22.1832 68.489 22.5078C68.1854 22.8219 68.0336 23.267 68.0336 23.8429C68.0336 24.4083 68.1854 24.8585 68.489 25.1936C68.7927 25.5182 69.1749 25.6805 69.6356 25.6805C70.0859 25.6805 70.4628 25.5182 70.7665 25.1936C71.0806 24.869 71.2377 24.4188 71.2377 23.8429ZM79.0702 28.3663C78.1907 28.3663 77.4001 28.1831 76.6986 27.8166C76.0075 27.4501 75.463 26.9265 75.0651 26.2459C74.6672 25.5653 74.4683 24.7643 74.4683 23.8429C74.4683 22.9319 74.6672 22.1361 75.0651 21.4555C75.4735 20.7749 76.0232 20.2513 76.7143 19.8848C77.4158 19.5184 78.2064 19.3351 79.0859 19.3351C79.9655 19.3351 80.7508 19.5184 81.4419 19.8848C82.1435 20.2513 82.6932 20.7749 83.0911 21.4555C83.4994 22.1361 83.7036 22.9319 83.7036 23.8429C83.7036 24.7538 83.4994 25.5548 83.0911 26.2459C82.6932 26.9265 82.1435 27.4501 81.4419 27.8166C80.7404 28.1831 79.9498 28.3663 79.0702 28.3663ZM79.0702 25.6962C79.4996 25.6962 79.8556 25.5391 80.1383 25.225C80.4315 24.9004 80.5781 24.4397 80.5781 23.8429C80.5781 23.246 80.4315 22.7905 80.1383 22.4764C79.8556 22.1623 79.5048 22.0052 79.0859 22.0052C78.6671 22.0052 78.3163 22.1623 78.0336 22.4764C77.7509 22.7905 77.6095 23.246 77.6095 23.8429C77.6095 24.4502 77.7457 24.9109 78.0179 25.225C78.2902 25.5391 78.6409 25.6962 79.0702 25.6962Z" fill="white"/>
</svg>
